<svg width="24" height="24" viewBox="0 0 24 24" fill="none" xmlns="http://www.w3.org/2000/svg">
<path d="M15 9H13V17H15V9Z" fill="#F2F2F2"/>
<path d="M11 9H9V17H11V9Z" fill="#F2F2F2"/>
<path d="M21 5.09589C20.9962 4.90087 20.93 4.71208 20.8108 4.55679C20.6916 4.40149 20.5257 4.28772 20.3369 4.23189V4.23189C20.2521 4.19688 20.1624 4.17502 20.0708 4.16709H14.954C14.7603 3.53987 14.3684 2.99079 13.8359 2.60067C13.3035 2.21055 12.6587 2 11.9964 2C11.3341 2 10.6893 2.21055 10.1568 2.60067C9.62442 2.99079 9.23251 3.53987 9.03881 4.16709H3.92193C3.83765 4.16877 3.75399 4.18185 3.67329 4.20597H3.65148C3.45178 4.26715 3.2789 4.39353 3.16103 4.5645C3.04316 4.73547 2.98726 4.94094 3.00244 5.14741C3.01762 5.35388 3.10299 5.54916 3.24462 5.70142C3.38626 5.85367 3.5758 5.95392 3.78234 5.98581L4.80746 19.9048C4.8231 20.4468 5.04397 20.9631 5.42621 21.3512C5.80845 21.7394 6.32411 21.9709 6.87079 22H17.1176C17.6651 21.972 18.1818 21.7409 18.565 21.3526C18.9481 20.9644 19.1696 20.4475 19.1853 19.9048L20.2061 5.99877C20.4262 5.96852 20.6278 5.86045 20.7737 5.6945C20.9196 5.52856 21 5.31594 21 5.09589V5.09589ZM11.9964 3.73509C12.1833 3.73511 12.3682 3.77351 12.5394 3.84787C12.7106 3.92222 12.8643 4.03092 12.991 4.16709H11.0018C11.1281 4.0305 11.2818 3.92152 11.4531 3.84714C11.6243 3.77275 11.8094 3.73459 11.9964 3.73509V3.73509ZM17.1176 20.272H6.87079C6.75301 20.272 6.5698 20.0819 6.54799 19.7795L5.53595 6.01605H18.4568L17.4448 19.7795C17.423 20.0819 17.2398 20.272 17.1176 20.272Z" fill="#F2F2F2"/>
</svg>
